<svg xmlns="http://www.w3.org/2000/svg" viewBox="0 0 800 450"><defs><style>.cls-1{fill:#a7daff;}.cls-2{fill:#fff;}.cls-3{fill:#fd6c78;}.cls-4{fill:#5d89ff;}.cls-5,.cls-7,.cls-9{fill:none;stroke:#311236;stroke-linecap:round;stroke-linejoin:round;}.cls-5{stroke-width:2.08px;}.cls-6{fill:#fd9d9d;}.cls-7{stroke-width:1.38px;}.cls-8{fill:#5f1d71;opacity:0.45;}.cls-9{stroke-width:1.42px;}.cls-10{fill:#ffce81;}</style></defs><g id="Calque_2" data-name="Calque 2"><g id="OBJECTS"><rect class="cls-1" width="800" height="450"/><path class="cls-2" d="M241.57,405.06c-5.73,0-10.37-4.18-10.37-9.34V203.5c0-2.64.07-5.3.22-7.93C236,110.79,313.51,44.36,407.83,44.36c47.19,0,91.55,16.56,124.9,46.62a158.9,158.9,0,0,1,41.76,59.71,144.52,144.52,0,0,1,10,52.81V395.72c0,5.16-4.64,9.34-10.37,9.34Z"/><path class="cls-1" d="M573.23,203.5V395.72H240.71V203.5q0-3.17.16-6.32c0-.37,0-.76,0-1.14.14-2.39.33-4.78.59-7.15s.58-4.95,1-7.41v0c.41-2.6.91-5.2,1.48-7.75s1.16-4.83,1.84-7.2,1.35-4.58,2.12-6.84c.59-1.77,1.23-3.55,1.92-5.29a145.17,145.17,0,0,1,25.57-42.48,161.14,161.14,0,0,1,40.27-33.6A178.68,178.68,0,0,1,407,53.71c42.91,0,82,14.64,111.51,38.71,1.61,1.29,3.2,2.64,4.74,4,.45.38.88.77,1.31,1.16,1.52,1.37,3,2.77,4.44,4.19,1.94,1.87,3.81,3.77,5.62,5.73s3.75,4.14,5.52,6.29,3.37,4.13,4.94,6.25q2.63,3.48,5,7.1,2.13,3.19,4.05,6.51c1.31,2.21,2.54,4.47,3.69,6.76,1,1.82,1.87,3.68,2.74,5.53s1.79,4,2.59,6c.26.59.5,1.2.74,1.81.49,1.26,1,2.52,1.42,3.78.81,2.27,1.57,4.55,2.27,6.87v0c.62,2,1.19,4.14,1.69,6.24a129,129,0,0,1,2.59,13.18A135.46,135.46,0,0,1,573.23,203.5Z"/><path class="cls-2" d="M573.23,228.52v15H425.43a53.58,53.58,0,0,1,9.11-8c14.79-10.16,36.38-11.45,52.53-3.18,9.52-14.46,28.25-23.57,46.88-22.81C549.3,210.19,564,217.49,573.23,228.52Z"/><path class="cls-2" d="M381,374.38H240.71V358.13A50.28,50.28,0,0,1,258,363.21c9.53-14.46,28.25-23.57,46.89-22.81s36.37,11.37,44.39,26.55c6.45-4.27,15.79-3.66,22.68,0A31.57,31.57,0,0,1,381,374.38Z"/><path class="cls-2" d="M428.67,111.9H275.44a161.14,161.14,0,0,1,40.27-33.6c1.47-.18,3-.31,4.44-.37,18.64-.76,37.36,8.35,46.88,22.8,16.15-8.27,37.74-7,52.53,3.18A53.58,53.58,0,0,1,428.67,111.9Z"/><path class="cls-2" d="M215.54,235.17c.07-.51.14-1,.21-1.53C215.68,234.21,215.61,234.7,215.54,235.17Z"/><path class="cls-2" d="M393.49,168.1c0,.26-.07.55-.11.81s-.07.48-.08.72q-.68,5.75-1.37,11.49c-.09.77-.16,1.42-.23,2-.22,1.86-.44,3.69-.65,5.55-.35,2.83-.68,5.68-1,8.52-.23,2-.45,3.92-.69,5.9l-.21,1.71a.27.27,0,0,0,0,.13c-.33,2.77-.66,5.53-1,8.3-.3,2.46-.61,4.92-.9,7.38,0,.16,0,.32-.05.46-.3,2.43-.59,4.84-.9,7.25-.26,2.19-.54,4.35-.82,6.53-.29,2.38-.58,4.75-.9,7.13-.25,2.14-.53,4.29-.82,6.44-.32,2.51-.64,5-1,7.51-.16,1.24-.31,2.47-.48,3.72-.09.71-.21,1.48-.33,2.43l-.28-.08c-28.33-8.13-53.9-14.13-83.57-14.58-19.85-.29-38.57-.48-57.38-2.91V203.5q0-3.17.16-6.32c0-.37,0-.76,0-1.14.14-2.39.33-4.78.59-7.15s.58-4.95,1-7.41v0c.41-2.6.91-5.2,1.48-7.75s1.16-4.83,1.84-7.2,1.35-4.58,2.12-6.84c.59-1.77,1.23-3.55,1.92-5.29,19.9,3,38.94,5.11,60.27,2.6a.75.75,0,0,1,.21,0l.33,0C341.05,153.43,365.06,157,393.49,168.1Z"/><path class="cls-3" d="M393.49,168.1c0,.26-.07.55-.11.81s-.07.48-.08.72c-.19,1.38-.33,2.46-.54,4.17q-4.38-1.56-8.68-2.93c-1.11-.37-2.23-.71-3.34-1-2.81-.86-5.63-1.65-8.42-2.35-1.17-.31-2.35-.61-3.52-.88-2.89-.68-5.74-1.29-8.59-1.83l-1.54-.27-.57-.11h0l-1.56-.26c-2.88-.48-5.79-.87-8.69-1.19-.42-.06-.83-.1-1.25-.14s-.84-.1-1.28-.12-.83-.09-1.24-.13q-4.31-.39-8.68-.56c-.35,0-.71,0-1.07,0l-1.68-.06h-1.09c-2.82-.07-5.69,0-8.59.06-.4,0-.81,0-1.23,0s-.83,0-1.24.05-.83,0-1.26,0c-3.15.14-6.35.38-9.6.67l-.19,0c-21.56,2-41.13-.21-61.48-3.09.59-1.77,1.23-3.55,1.92-5.29,19.9,3,38.94,5.11,60.27,2.6a.75.75,0,0,1,.21,0l.33,0C341.05,153.43,365.06,157,393.49,168.1Z"/><path class="cls-3" d="M391.93,181.12c-.09.77-.16,1.42-.23,2-.19,1.86-.34,3.29-.57,5.58l-.08,0c-4.51-1.2-9-2.32-13.38-3.32-1.66-.37-3.32-.75-5-1.08q-3.69-.78-7.33-1.46c-1.54-.28-3.1-.56-4.64-.81-2.59-.45-5.18-.84-7.8-1.2-1.45-.2-2.92-.4-4.39-.57-2.69-.35-5.41-.63-8.12-.86-1.38-.14-2.77-.27-4.15-.36q-4.12-.33-8.3-.5c-1.37-.08-2.73-.12-4.11-.15-5.31-.19-10.69-.19-16.19-.05h-.05c-21.8.56-42.53-1.85-63.64-4.64.56-2.43,1.16-4.83,1.84-7.2,20.78,2.84,41,5.14,62.72,3.83h.12c3.8-.23,7.52-.37,11.2-.4a3.54,3.54,0,0,1,.45,0c4,0,8,0,11.88.17.17,0,.34,0,.54,0,4,.19,8,.47,11.92.89a3.69,3.69,0,0,1,.49.05c4,.42,8,.95,12,1.6l.31.07c4,.65,8,1.41,12,2.32a.39.39,0,0,1,.14,0C376.91,176.7,384.32,178.72,391.93,181.12Z"/><path class="cls-3" d="M390.27,197.27c-.31,3.07-.47,4.6-.8,7.64l-.06,0-.28,0c-3.29-.57-6.57-1.12-9.86-1.65l-1.78-.28c-3.38-.53-6.77-1-10.18-1.51l-2.4-.34c-2.92-.41-5.86-.8-8.8-1.17h0l-4.61-.56c-2.34-.3-4.69-.56-7-.84l-5.53-.61-7.09-.75c-1.49-.15-3-.31-4.46-.45-3.11-.31-6.23-.61-9.34-.9l-1.86-.17-10.46-1c-21.41-1.87-42.84-3.55-64.19-5.77.25-2.49.58-4.95,1-7.41,21.35,2.07,42.82,3.32,64.21,4.91,10.14.78,20.29,1.62,30.39,2.66l.17,0c4.06.42,8.13.88,12.17,1.38l.16,0c4.08.5,8.15,1.07,12.22,1.67h0c9.45,1.39,18.86,3,28.2,5.09h.08l.13,0Z"/><path class="cls-3" d="M388.51,213.32c-.35,2.8-.54,4.31-.9,6.84,0,.17,0,.35-.07.53a1.76,1.76,0,0,0-.31,0,.9.9,0,0,1-.16,0c-27.8-3.3-55.65-6.24-83.5-9.19-20.95-2.22-41.92-4.42-62.86-6.77V203.5q0-3.17.16-6.32c21.23,2.31,42.46,4.41,63.69,6.57,19,1.95,38,4,57,6.2l8.28,1a.32.32,0,0,1,.14,0l3.59.43.21,0c4.75.6,9.51,1.2,14.26,1.83h.11a1.55,1.55,0,0,0,.31,0S388.49,213.32,388.51,213.32Z"/><path class="cls-3" d="M386.5,228.4c-.36,2.66-.53,3.95-.88,6.52l-.16,0-.26,0c-47.88-8.75-96.38-10.29-144.49-16.4v-6.15c48.41,5.84,97.11,8.74,145.34,16l.23,0Z"/><path class="cls-3" d="M384.65,242c-.34,2.55-.52,3.83-.86,6.43h-.05c-.11,0-.2-.05-.3-.06C336,236.74,288.24,237.76,240.71,231v-6c47.82,6.45,96,6.62,143.58,17a2.61,2.61,0,0,1,.27.06Z"/><path class="cls-3" d="M382.77,256c-.19,1.49-.33,2.52-.5,3.72-.09.71-.21,1.48-.33,2.43l-.28-.08c-28.33-8.13-53.9-14.13-83.57-14.58-19.85-.29-38.57-.48-57.38-2.91v-6.42c19.17,2.45,38.24,2.88,58.3,3.46,29.28.84,55.4,6.65,83.45,14.3a1,1,0,0,1,.29.08Z"/><path class="cls-4" d="M310.34,157c-2.34,18.29-4.42,36.6-6.82,54.89q42,4.22,84,9.28c2.26-17.65,3.87-35.36,6-53C365.63,157.06,340.59,152.74,310.34,157Z"/><path class="cls-2" d="M383,166.12c-.48.57-.71.87-1.19,1.46l-2.15-.43,1.33,1.92c-.25.75-.38,1.12-.63,1.88.81-.14,1.21-.2,2-.32l1.74,1.57c0-.84-.05-1.25-.09-2.09l1.69-.84-2-1Z"/><path class="cls-2" d="M371.24,162.36,370,164l-2.23-.26,1.38,1.87c-.27.79-.4,1.19-.66,2l2.08-.48,1.81,1.5c0-.86-.05-1.3-.08-2.16.71-.41,1.06-.61,1.77-1l-2.12-.92C371.67,163.64,371.52,163.21,371.24,162.36Z"/><path class="cls-2" d="M359.06,159.47l-1.26,1.72-2.28-.09,1.41,1.78c-.27.82-.4,1.23-.67,2.06l2.13-.64c.75.56,1.12.83,1.86,1.4,0-.88-.06-1.32-.09-2.2.72-.47,1.09-.7,1.81-1.15-.87-.32-1.3-.47-2.18-.77C359.5,160.73,359.35,160.31,359.06,159.47Z"/><path class="cls-2" d="M346.64,157.56c-.51.72-.77,1.08-1.27,1.81-.92,0-1.38,0-2.3.08l1.43,1.67c-.26.83-.39,1.25-.66,2.09l2.15-.79c.76.49,1.13.74,1.89,1.25-.05-.88-.07-1.31-.11-2.19l1.83-1.29c-.88-.25-1.32-.37-2.21-.6Z"/><path class="cls-2" d="M334.13,156.72l-1.26,1.87-2.29.29,1.44,1.49-.65,2.1,2.14-.95c.76.42,1.14.64,1.9,1.08-.05-.86-.07-1.29-.12-2.14.73-.57,1.09-.86,1.83-1.42-.89-.17-1.34-.25-2.23-.4C334.59,157.87,334.44,157.48,334.13,156.72Z"/><path class="cls-2" d="M321.7,157.08l-1.23,1.9-2.26.49c.57.5.85.76,1.42,1.28L319,162.8l2.11-1.1,1.88.87c-.05-.82-.08-1.23-.13-2l1.81-1.52c-.89-.08-1.33-.11-2.2-.17C322.16,158.13,322,157.77,321.7,157.08Z"/><path class="cls-2" d="M381.41,178.14l-1.18,1.56-2.17-.31c.55.75.82,1.13,1.37,1.87-.24.78-.37,1.16-.61,1.94l2-.44,1.79,1.48c-.05-.85-.07-1.27-.12-2.11l1.69-1-2.07-.92Z"/><path class="cls-2" d="M369.53,174.93l-1.22,1.69-2.24-.18,1.4,1.86c-.26.81-.38,1.22-.64,2l2.09-.57,1.82,1.44-.1-2.19,1.76-1.11-2.14-.83Z"/><path class="cls-2" d="M357.34,172.38c-.5.71-.75,1.07-1.25,1.8-.9,0-1.36,0-2.27-.05l1.43,1.8-.65,2.13c.85-.29,1.27-.43,2.12-.7l1.86,1.37c-.05-.9-.07-1.34-.11-2.24l1.8-1.24-2.18-.72Z"/><path class="cls-2" d="M345,170.57l-1.24,1.88-2.29.08,1.44,1.73-.65,2.16c.86-.34,1.28-.5,2.14-.82l1.88,1.27c-.05-.9-.07-1.35-.12-2.24l1.81-1.36-2.2-.6Z"/><path class="cls-2" d="M332.53,169.58c-.5.77-.75,1.15-1.24,1.93-.91.08-1.37.13-2.28.23l1.44,1.6c-.25.86-.38,1.29-.64,2.16l2.13-.94,1.89,1.15c-.05-.89-.08-1.33-.13-2.21l1.81-1.45-2.21-.45C333,170.79,332.84,170.38,332.53,169.58Z"/><path class="cls-2" d="M320.15,169.5l-1.22,1.94-2.26.39c.58.56.86.84,1.43,1.42-.25.85-.37,1.27-.63,2.12l2.11-1c.75.39,1.13.58,1.88,1-.06-.86-.08-1.28-.14-2.13l1.8-1.52c-.88-.12-1.32-.18-2.2-.28C320.61,170.63,320.46,170.25,320.15,169.5Z"/><path class="cls-2" d="M380.08,189.12l-1.18,1.61-2.2-.19,1.39,1.8-.61,2,2-.54,1.81,1.38c0-.84-.08-1.25-.13-2.09l1.72-1.05-2.11-.81C380.53,190.36,380.38,190,380.08,189.12Z"/><path class="cls-2" d="M368.09,186.43l-1.22,1.74-2.24-.1,1.4,1.81c-.25.83-.38,1.24-.64,2.07l2.1-.65,1.84,1.37c-.05-.87-.07-1.31-.12-2.18l1.77-1.18-2.15-.75C368.53,187.71,368.39,187.29,368.09,186.43Z"/><path class="cls-2" d="M355.88,184.22c-.5.73-.75,1.1-1.24,1.84h-2.27c.57.71.86,1.07,1.42,1.79-.25.85-.38,1.28-.64,2.14l2.12-.75c.74.54,1.11.81,1.86,1.34-.05-.9-.07-1.34-.11-2.24.71-.52,1.07-.77,1.79-1.28l-2.18-.68Z"/><path class="cls-2" d="M343.53,182.54l-1.24,1.9-2.28.09,1.44,1.73c-.26.87-.39,1.31-.64,2.18l2.12-.83,1.88,1.27c-.05-.9-.07-1.35-.12-2.25.72-.55,1.08-.83,1.81-1.37l-2.2-.59Z"/><path class="cls-2" d="M331.14,181.45l-1.23,1.93-2.27.19,1.44,1.64c-.26.87-.38,1.3-.64,2.17l2.12-.9,1.89,1.18c-.06-.89-.08-1.33-.13-2.22l1.8-1.44-2.21-.49C331.61,182.68,331.45,182.27,331.14,181.45Z"/><path class="cls-2" d="M318.8,181l-1.22,1.93-2.26.29,1.43,1.51c-.25.85-.37,1.27-.62,2.11l2.1-1,1.88,1.07c-.06-.86-.08-1.29-.14-2.15l1.79-1.48-2.19-.37Z"/><path class="cls-2" d="M378.6,201.4l-1.21,1.66-2.22-.08,1.4,1.7c-.26.78-.38,1.17-.64,1.95L378,206l1.83,1.25c0-.81-.07-1.22-.11-2,.7-.46,1.05-.69,1.75-1.13l-2.14-.68Z"/><path class="cls-2" d="M366.49,199.3l-1.24,1.77L363,201l1.41,1.74c-.27.82-.4,1.23-.66,2l2.11-.7,1.84,1.27-.1-2.13,1.79-1.23-2.16-.66C366.93,200.55,366.78,200.14,366.49,199.3Z"/><path class="cls-2" d="M354.25,197.47,353,199.31l-2.26,0c.57.69.85,1,1.41,1.74l-.65,2.1,2.12-.76,1.85,1.28-.1-2.2,1.8-1.3c-.87-.25-1.3-.38-2.18-.62C354.7,198.74,354.55,198.32,354.25,197.47Z"/><path class="cls-2" d="M341.94,195.94l-1.24,1.88-2.27.08,1.42,1.71-.65,2.13,2.12-.8,1.87,1.24c-.05-.88-.07-1.32-.11-2.21l1.8-1.35-2.19-.58Z"/><path class="cls-2" d="M329.6,194.73l-1.23,1.89-2.27.13,1.43,1.66c-.25.84-.38,1.26-.64,2.1l2.12-.83,1.87,1.2c-.05-.87-.07-1.31-.12-2.19l1.8-1.38-2.2-.52C330.06,196,329.91,195.56,329.6,194.73Z"/><path class="cls-2" d="M317.29,193.9c-.49.75-.73,1.12-1.22,1.85l-2.26.19,1.43,1.55c-.25.82-.38,1.23-.63,2l2.1-.84,1.87,1.13c-.05-.85-.07-1.27-.12-2.12l1.78-1.38-2.18-.45Z"/><path class="cls-2" d="M377.11,212.69l-1.24,1.66-2.26,0L375,216a14.16,14.16,0,0,1-.76,1.75l2.18-.58,1.81,1.05c0-.71,0-1.05,0-1.84l1.8-1.18-2.17-.56C377.55,213.84,377.41,213.46,377.11,212.69Z"/><path class="cls-2" d="M364.9,211.11l-1.26,1.75-2.26,0,1.39,1.64a10.56,10.56,0,0,1-.78,1.75l2.19-.57,1.77,1a18.08,18.08,0,0,0,0-1.84c.73-.49,1.09-.74,1.81-1.24l-2.17-.56C365.34,212.31,365.19,211.91,364.9,211.11Z"/><path class="cls-2" d="M352.66,209.6l-1.26,1.79-2.26.05,1.39,1.67a10,10,0,0,1-.77,1.76l2.19-.56,1.77,1c0-.67,0-1,0-1.84l1.81-1.29-2.17-.56Z"/><path class="cls-2" d="M340.39,208.17,339.14,210l-2.26.05,1.4,1.67a12.64,12.64,0,0,1-.72,1.78l2.16-.56,1.79,1c0-.68,0-1,0-1.87.73-.51,1.09-.77,1.81-1.3l-2.17-.56C340.83,209.39,340.69,209,340.39,208.17Z"/><path class="cls-2" d="M328.12,206.82c-.5.72-.74,1.08-1.24,1.79l-2.26.06L326,210.3a18.07,18.07,0,0,1-.68,1.8l2.13-.58,1.82,1c0-.69,0-1-.07-1.88l1.81-1.29-2.18-.55Z"/><path class="cls-2" d="M315.85,205.59c-.49.69-.73,1-1.23,1.72l-2.25.06,1.42,1.56c-.26.77-.39,1.13-.64,1.81l2.1-.61c.74.43,1.12.63,1.86,1.05-.05-.71-.07-1.08-.11-1.89l1.79-1.25-2.18-.52C316.31,206.75,316.16,206.36,315.85,205.59Z"/><path class="cls-2" d="M377,170.46l-1.2,1.58c-.88-.13-1.32-.19-2.2-.3l1.37,1.89c-.25.78-.38,1.17-.64,2l2.05-.45,1.8,1.51c0-.86-.07-1.29-.11-2.14l1.73-1-2.09-.94C377.4,171.75,377.26,171.32,377,170.46Z"/><path class="cls-2" d="M365,167.3c-.5.68-.75,1-1.24,1.71l-2.26-.16c.57.73.85,1.1,1.41,1.84-.27.82-.4,1.24-.66,2.06l2.11-.59,1.84,1.44-.1-2.21,1.78-1.12-2.15-.82Z"/><path class="cls-2" d="M352.68,164.94c-.51.72-.76,1.08-1.26,1.81h-2.29l1.43,1.76c-.26.84-.39,1.27-.66,2.12l2.14-.74,1.87,1.34-.1-2.23,1.81-1.26-2.2-.68C353.12,166.21,353,165.79,352.68,164.94Z"/><path class="cls-2" d="M340.23,163.48c-.5.75-.75,1.13-1.26,1.88l-2.29.17c.58.65.87,1,1.44,1.63-.26.86-.39,1.29-.64,2.15.85-.36,1.28-.53,2.14-.87l1.89,1.2c-.05-.88-.08-1.33-.12-2.21l1.82-1.38c-.89-.22-1.33-.32-2.22-.52C340.69,164.71,340.53,164.3,340.23,163.48Z"/><path class="cls-2" d="M327.77,163l-1.23,1.92-2.28.34,1.44,1.47c-.26.85-.39,1.27-.64,2.12l2.13-1,1.88,1c-.05-.86-.07-1.29-.13-2.15l1.82-1.48-2.22-.34C328.24,164.17,328.08,163.78,327.77,163Z"/><path class="cls-2" d="M375.49,182l-1.2,1.65-2.21-.2c.55.74.83,1.11,1.39,1.84-.25.8-.38,1.2-.63,2l2.06-.55,1.82,1.42c-.05-.85-.07-1.28-.12-2.14l1.73-1.07-2.11-.84C375.92,183.31,375.78,182.88,375.49,182Z"/><path class="cls-2" d="M363.42,179.32l-1.23,1.77c-.9-.05-1.35-.06-2.26-.1l1.42,1.83-.65,2.1,2.11-.66,1.85,1.38c-.05-.88-.07-1.33-.12-2.22l1.79-1.19-2.17-.76C363.87,180.61,363.72,180.18,363.42,179.32Z"/><path class="cls-2" d="M351.14,177.2l-1.25,1.86-2.28,0,1.44,1.78L348.4,183c.85-.32,1.28-.47,2.13-.77l1.87,1.32c0-.9-.07-1.35-.12-2.25l1.81-1.31-2.2-.66Z"/><path class="cls-2" d="M338.74,175.76c-.5.76-.75,1.15-1.24,1.92l-2.28.14,1.44,1.69c-.26.87-.39,1.31-.64,2.18l2.13-.87,1.88,1.23c0-.9-.07-1.35-.12-2.25l1.81-1.4-2.21-.55C339.2,177,339.05,176.59,338.74,175.76Z"/><path class="cls-2" d="M326.34,175.06,325.11,177l-2.27.28,1.44,1.55c-.25.87-.38,1.3-.63,2.16l2.11-1,1.89,1.11c-.06-.88-.08-1.32-.13-2.2.71-.59,1.07-.88,1.8-1.47l-2.21-.41Z"/><path class="cls-2" d="M374,194.35l-1.21,1.7-2.23-.1,1.4,1.76c-.25.81-.38,1.21-.64,2l2.09-.64,1.83,1.32c0-.84-.07-1.27-.11-2.11.7-.47,1.05-.7,1.75-1.15l-2.14-.73C374.42,195.6,374.28,195.18,374,194.35Z"/><path class="cls-2" d="M361.84,192.13l-1.24,1.8-2.25,0,1.41,1.78-.65,2.09,2.11-.71,1.85,1.31-.1-2.19,1.78-1.25-2.17-.68C362.29,193.4,362.14,193,361.84,192.13Z"/><path class="cls-2" d="M349.56,190.29c-.5.75-.75,1.12-1.24,1.87l-2.27.05,1.42,1.75-.65,2.15,2.12-.79,1.87,1.29c0-.89-.07-1.34-.11-2.23l1.8-1.33-2.19-.63Z"/><path class="cls-2" d="M337.21,188.89c-.5.76-.75,1.14-1.24,1.91l-2.28.12c.58.67.87,1,1.44,1.7-.26.86-.38,1.29-.64,2.15l2.12-.84,1.88,1.24c-.05-.9-.08-1.34-.12-2.24l1.8-1.39L338,191C337.66,190.15,337.51,189.73,337.21,188.89Z"/><path class="cls-2" d="M324.85,188l-1.23,1.91-2.26.2,1.43,1.61-.63,2.12,2.11-.89,1.88,1.16c0-.87-.08-1.31-.13-2.19l1.8-1.42-2.2-.47Z"/><path class="cls-2" d="M372.54,205.66l-1.23,1.71h-2.25l1.4,1.67c-.26.79-.39,1.19-.66,2l2.11-.69,1.84,1.22c0-.82-.05-1.24-.1-2.06l1.79-1.2-2.16-.62Z"/><path class="cls-2" d="M360.34,203.88l-1.25,1.79-2.26,0,1.41,1.71-.67,2,2.12-.74,1.84,1.24c0-.85,0-1.28-.09-2.14l1.81-1.26-2.17-.61C360.78,205.12,360.64,204.71,360.34,203.88Z"/><path class="cls-2" d="M348.07,202.28l-1.25,1.85-2.26.05,1.41,1.71c-.27.84-.4,1.25-.66,2.09l2.12-.78,1.85,1.24c0-.86-.06-1.3-.09-2.17L351,205l-2.19-.58C348.52,203.54,348.37,203.12,348.07,202.28Z"/><path class="cls-2" d="M335.77,200.9c-.5.74-.75,1.11-1.24,1.86l-2.27.08,1.42,1.68L333,206.6l2.12-.79L337,207c0-.87-.07-1.31-.11-2.18l1.81-1.34-2.19-.56Z"/><path class="cls-2" d="M323.46,199.75c-.49.74-.74,1.1-1.23,1.83l-2.26.11,1.43,1.62c-.26.82-.39,1.22-.64,2l2.11-.78c.74.47,1.12.7,1.86,1.18-.05-.85-.07-1.28-.12-2.13l1.8-1.34-2.19-.51C323.92,201,323.77,200.55,323.46,199.75Z"/><path class="cls-5" d="M368.82,358.18c.49-.62,25.33-192,25.33-192"/><path class="cls-6" d="M403.39,315a3,3,0,0,1-1.68,1.61,14,14,0,0,1-5.35,1.15,27.08,27.08,0,0,1-14-3.13,17.07,17.07,0,0,1-2.69-1.85,1.76,1.76,0,0,1-.33-.27l.26.5c.53,1,1.78,3.41,3.23,6.42,3,6.29,6.95,15.17,7,19.48,0,1.17-.24,2-.88,2.36-4.44,2.47-10.87-.38-15.23-4.51l-.21-.2s-.05-.05-.07-.06,0,.19,0,.54,0,.46,0,.75a106.87,106.87,0,0,1-2.76,28.58,74.18,74.18,0,0,1-2.41,8c-.46,1.27-1,2.57-1.52,3.83a50.42,50.42,0,0,1-10.28,15.67,10.08,10.08,0,0,0-1.4,1.84H290c2.47-4.26,4.08-7.53,4.3-9.19a68,68,0,0,0,.42-12.15,213.62,213.62,0,0,0-3-24.54c-.43-2.58-.88-5.29-1.33-8.08-2.56-15.76-4.91-33.26-.64-35.47,5-2.63,46.46-29.53,51.43-29.86,2.1-.14,13.11.11,25,.92l.67,0,2.53.19h.17c3.37.25,6.74.56,9.94.92l1.88.23c1.06.13,2.06.25,3.05.39a1.25,1.25,0,0,1,.19,0c5.41.75,9.95,1.69,12.53,2.84,1.61.73,2.46,1.51,2.28,2.38-1.24,6.54-14.54,10.45-14.54,10.45a2.58,2.58,0,0,0,.21.18c.57.46,2.21,1.85,4.32,3.7,4.9,4.35,12.29,11.23,13.76,14.8A2.13,2.13,0,0,1,403.39,315Z"/><path class="cls-2" d="M397.14,282a12.45,12.45,0,0,1-1.23.36,33.86,33.86,0,0,1-26.53-4.79C380.8,278.47,392.36,279.88,397.14,282Z"/><path class="cls-2" d="M403.18,313.52a14.73,14.73,0,0,1-5.21-1.41,17,17,0,0,1-7.45-6.05c-1.06-1.69-1.83-5.13-1.09-7.34C394.32,303.07,401.72,310,403.18,313.52Z"/><path class="cls-2" d="M389.8,338.9a6.63,6.63,0,0,1-2.41-1.06,14.1,14.1,0,0,1-3-2.94,22.87,22.87,0,0,1-3.89-6.13c-1-2.59-.86-8.89,2.35-9.36C385.85,325.7,389.77,334.58,389.8,338.9Z"/><path class="cls-7" d="M326,320.9l4.32-11.31s10.12-4.77,16.79-13.06c0,0,26.45,3.05,40.46-2.33s12-10.71,12-10.71"/><path class="cls-7" d="M335,323.54s3.15-7.05,3.76-10.32c0,0,14.78-6.63,16.54-9.17l19.29,2.37s8.54,16.75,28.27,9.78c0,0,2.38-2-2-6.46s-14.41-14.69-14.41-14.69"/><line class="cls-7" x1="320.09" y1="318.66" x2="341.85" y2="327.29"/><path class="cls-6" d="M323.45,349.65s16.74-17.13,22.22-28.55,21-51.87,29.8-51.45,10.53,7.68,8.61,21.86-9.44,39.18-10.66,46.61-11.75,41.07-11.75,41.07L322.7,351Z"/><path class="cls-7" d="M324.91,346.4s12.65-11,18.84-23.11S364,269,377,269.64s6.1,30,4.29,36.18-7.83,23.78-7.84,32.3-1.54,40.66-15.55,55.09"/><path class="cls-2" d="M369.26,278.09a11.69,11.69,0,0,1,4.9-5.07,5.24,5.24,0,0,1,3-.51c2.33.4,3.5,2.77,4,4.86,1.23,5.45.38,11.12-1.21,16.49a2.06,2.06,0,0,1-.54,1,2.44,2.44,0,0,1-1.14.44c-3.88.7-10.82.16-12.31-3.91S367.28,281.56,369.26,278.09Z"/><path class="cls-2" d="M569.22,170.7c-18.86,8.38-38.41,13.79-59.25,19.67-28.31,8-50.93,20.33-75.55,35.33l-.24.16c-.85-1.76-1.35-2.84-2-4.19-.25-.5-.49-1-.71-1.5-1.11-2.3-2.22-4.62-3.3-6.93-1-2-1.89-4-2.82-6-1.06-2.19-2.09-4.4-3.13-6.62l-2.84-6c-1-2.24-2.09-4.49-3.13-6.74-.07-.14-.13-.28-.19-.42-1.07-2.28-2.12-4.57-3.18-6.86-1.21-2.6-2.42-5.2-3.61-7.8-.29-.62-.57-1.23-.86-1.84-.8-1.74-1.61-3.49-2.41-5.25-1.23-2.63-2.44-5.26-3.65-7.9-.67-1.43-1.33-2.86-2-4.31-.12-.28-.24-.56-.38-.84s-.12-.28-.19-.44c-1.14-2.44-2.27-4.89-3.39-7.33-.95-2.08-1.9-4.15-2.87-6.22l2.23-1.67c23-16.91,44.55-26,74-30.26l.19,0c17.95-2.59,33.28-7.91,48.55-14.28,1.61,1.29,3.2,2.64,4.74,4,.45.38.88.77,1.31,1.16,1.52,1.37,3,2.77,4.44,4.19,1.94,1.87,3.81,3.77,5.62,5.73s3.75,4.14,5.52,6.29,3.37,4.13,4.94,6.25q2.63,3.48,5,7.1,2.13,3.19,4.05,6.51c1.31,2.21,2.54,4.47,3.69,6.76,1,1.82,1.87,3.68,2.74,5.53s1.79,4,2.59,6c.26.59.5,1.2.74,1.81.49,1.26,1,2.52,1.42,3.78.81,2.27,1.57,4.55,2.27,6.87v0C568.15,166.51,568.72,168.6,569.22,170.7Z"/><path class="cls-3" d="M523.22,96.43c-16.12,6.7-32.25,12.5-50.78,15.63a1,1,0,0,0-.17,0c-3.24.54-6.36,1.15-9.42,1.8l-1.25.29c-.4.07-.78.17-1.17.26s-.8.17-1.2.28c-2.82.65-5.56,1.37-8.28,2.15l-1,.3c-.51.15-1,.29-1.53.45l-1.06.32c-2.77.86-5.46,1.76-8.12,2.76-.4.13-.78.28-1.18.44l-1.16.43c-.4.14-.79.3-1.19.47-2.7,1-5.34,2.17-7.95,3.37-.47.2-.94.42-1.4.65-.18.06-.35.16-.52.23s0,0,0,0l-1.4.65c-2.58,1.25-5.12,2.56-7.66,4-1,.56-2.07,1.14-3.11,1.73-2.46,1.4-4.89,2.86-7.33,4.42-1,.59-1.92,1.2-2.87,1.82-2.46,1.62-4.93,3.29-7.4,5.05-1-2.13-1.49-3.19-2.49-5.28l2.23-1.67c23-16.91,44.55-26,74-30.26l.19,0c17.95-2.59,33.28-7.91,48.55-14.28C520.09,93.71,521.68,95.06,523.22,96.43Z"/><path class="cls-3" d="M534.59,107.51c-18,7.44-35.91,14.36-55.53,19l-.05,0c-5.31,1.26-10.46,2.65-15.49,4.16-1.31.39-2.61.79-3.91,1.21h0c-2.62.83-5.19,1.68-7.75,2.59-1.31.45-2.63.93-3.92,1.4-2.53.93-5,1.92-7.51,2.93-1.35.54-2.69,1.09-4,1.66-2.36,1-4.73,2.05-7.08,3.14-1.4.63-2.82,1.3-4.22,2q-3.27,1.57-6.54,3.26c-1.47.75-2.95,1.53-4.42,2.32-3.93,2.09-7.83,4.28-11.78,6.6l-.08,0c-.78-1.77-1.32-3-1.92-4.36-.12-.28-.24-.56-.38-.84s-.12-.28-.19-.44c-.21-.45-.42-.93-.66-1.46,6.54-4.25,13-8.09,19.52-11.51a.75.75,0,0,1,.12-.07q5.34-2.82,10.75-5.29l.3-.14c3.61-1.64,7.26-3.18,11-4.61l.45-.16q5.47-2.1,11.15-3.88a3,3,0,0,1,.54-.17c3.68-1.18,7.45-2.24,11.31-3.22l.43-.11q5.31-1.34,10.87-2.46a.7.7,0,0,1,.12,0c19.16-3.88,36.19-10.24,53.3-17.32C530.91,103.65,532.78,105.55,534.59,107.51Z"/><path class="cls-3" d="M545.05,120.05c-19.53,7.47-39.31,14.47-59,21.65l-9.73,3.58c-.57.2-1.14.42-1.73.64-2.9,1.07-5.79,2.16-8.69,3.25l-4.14,1.58c-2.21.84-4.4,1.7-6.6,2.54h-.05c-1.64.66-3.29,1.3-4.93,1.95-2.19.86-4.39,1.73-6.57,2.62l-4.3,1.74c-2.7,1.11-5.36,2.23-8,3.37h0l-2,.86-.06,0c-3.13,1.34-6.24,2.69-9.33,4.08-.54.23-1.07.48-1.61.7q-4.49,2-8.92,4.13a1,1,0,0,0-.24.11s0,0-.07,0c-1.28-2.84-1.9-4.25-3.17-7.12a0,0,0,0,0,0,0,.27.27,0,0,0,.12-.06.11.11,0,0,0,.07,0q12.48-6.51,25.43-12.09,5.58-2.43,11.21-4.72a.47.47,0,0,0,.15-.06q5.58-2.27,11.24-4.42l.15-.06c9.36-3.6,18.81-7,28.3-10.33,19.21-6.71,38.57-13.13,57.63-20.22C541.84,115.84,543.48,117.93,545.05,120.05Z"/><path class="cls-3" d="M554.08,133.66c-20.18,8-40.44,15.76-60.7,23.57-25.78,9.94-51.56,19.87-77.16,30.17l-.16,0c-.08,0-.19.07-.27.12h0c-1.26-2.65-1.95-4-3.25-6.82,0,0,.05,0,.07,0a1.85,1.85,0,0,0,.29-.13.16.16,0,0,0,.09,0q6.54-2.73,13.12-5.4l.19-.08,3.29-1.34a.28.28,0,0,0,.12-.05l7.64-3.07c17.49-7,35.09-13.77,52.71-20.49,20-7.64,40.06-15.22,60-23Q552.16,130.35,554.08,133.66Z"/><path class="cls-3" d="M560.51,146c-45.63,19.13-93.38,33.24-138,54.6l-.24.1a.52.52,0,0,1-.12.07c-1.14-2.37-1.71-3.57-2.91-6l.19-.08.21-.09c45.23-19.89,92.41-35.44,138.18-54.1C558.74,142.24,559.64,144.1,560.51,146Z"/><path class="cls-3" d="M565.26,157.57c-45,20.06-93.29,31.25-136.84,55.51a1.75,1.75,0,0,1-.25.16l0,0c-1.16-2.42-1.73-3.6-2.85-5.95a.13.13,0,0,1,.07,0l.26-.14c44.05-23,92.14-35.53,137.49-55.15.26.59.5,1.2.74,1.81C564.33,155.05,564.81,156.31,565.26,157.57Z"/><path class="cls-3" d="M569.22,170.7c-18.86,8.38-38.41,13.79-59.25,19.67-28.31,8-50.93,20.33-75.55,35.33l-.24.16c-.85-1.76-1.35-2.84-2-4.19-.23-.46-.47-.94-.73-1.48a0,0,0,0,0,0,0l.26-.15c24.49-14.51,47.71-26.75,75.53-35,21-6.27,40.94-12,60.27-20.52C568.15,166.51,568.72,168.6,569.22,170.7Z"/><path class="cls-4" d="M469.74,106.72c8,16.94,15.77,34,23.83,50.9q-39,14.79-77.6,30.36c-7.72-16.35-14.84-32.92-22.45-49.32C416.76,121,439.41,110.41,469.74,106.72Z"/><path class="cls-2" d="M402.93,134.08c.64.43,1,.65,1.6,1.1l1.93-1-.67,2.18L407,138l-2,.21-1.18,1.95-.57-2-1.88-.37,1.62-1.52C402.94,135.4,402.94,135,402.93,134.08Z"/><path class="cls-2" d="M413,127.47l1.7,1.22,2.05-.83-.73,2.15,1.26,1.73-2.15.08c-.51.75-.76,1.13-1.26,1.9l-.6-2.1-2-.51,1.74-1.42Z"/><path class="cls-2" d="M423.81,121.59c.71.52,1.06.79,1.76,1.32.86-.28,1.29-.41,2.16-.67l-.8,2.07c.52.72.78,1.08,1.29,1.81-.9,0-1.35-.05-2.24-.07-.54.72-.81,1.08-1.34,1.81-.25-.86-.37-1.28-.61-2.13l-2.1-.64c.73-.53,1.1-.79,1.85-1.3C423.79,122.91,423.8,122.47,423.81,121.59Z"/><path class="cls-2" d="M435.13,116.57l1.78,1.41,2.24-.5c-.35.78-.52,1.17-.86,2l1.3,1.85c-.93-.1-1.39-.14-2.31-.22l-1.42,1.68-.58-2.12-2.17-.77c.77-.47,1.16-.69,1.94-1.14C435.08,117.86,435.09,117.43,435.13,116.57Z"/><path class="cls-2" d="M446.86,112.58l1.79,1.47,2.29-.31c-.37.71-.55,1.07-.91,1.8l1.28,1.84L449,117c-.59.6-.89.9-1.48,1.52-.22-.84-.33-1.25-.56-2.08l-2.2-.9,2-1C446.78,113.79,446.8,113.39,446.86,112.58Z"/><path class="cls-2" d="M458.89,109.75l1.78,1.5c.93,0,1.39-.07,2.32-.1-.39.62-.58.94-1,1.58.51.72.76,1.08,1.26,1.81l-2.37-.51c-.61.51-.92.77-1.53,1.31-.21-.8-.31-1.2-.52-2l-2.21-1c.82-.3,1.23-.45,2.06-.73C458.78,110.86,458.81,110.49,458.89,109.75Z"/><path class="cls-2" d="M408.26,145.2l1.62,1.19,2-.84-.73,2.14,1.2,1.7-2.08.09L409,151.36c-.22-.82-.33-1.23-.54-2.05l-1.93-.49,1.69-1.42C408.25,146.52,408.25,146.08,408.26,145.2Z"/><path class="cls-2" d="M418.64,139.09l1.71,1.3,2.08-.74-.75,2.14,1.26,1.79h-2.18c-.53.74-.79,1.11-1.3,1.85-.24-.86-.35-1.28-.59-2.13l-2-.61,1.79-1.35C418.63,140.43,418.63,140,418.64,139.09Z"/><path class="cls-2" d="M429.53,133.52l1.76,1.41,2.16-.63c-.32.84-.48,1.26-.79,2.1l1.29,1.87c-.91-.06-1.36-.09-2.26-.13l-1.35,1.79-.6-2.18-2.11-.72,1.86-1.26C429.51,134.87,429.51,134.42,429.53,133.52Z"/><path class="cls-2" d="M440.83,128.62l1.78,1.49c.89-.21,1.34-.31,2.23-.5-.34.8-.51,1.2-.84,2l1.3,1.91-2.31-.24-1.4,1.71c-.24-.88-.36-1.32-.59-2.19l-2.17-.83,1.93-1.14C440.78,130,440.8,129.51,440.83,128.62Z"/><path class="cls-2" d="M452.44,124.49l1.8,1.54,2.26-.36c-.36.75-.53,1.13-.88,1.9l1.29,1.91-2.34-.36-1.45,1.59-.57-2.15-2.19-.93,2-1Z"/><path class="cls-2" d="M464.28,121.26l1.78,1.54,2.29-.2-.92,1.73,1.27,1.87-2.35-.46-1.49,1.43c-.21-.83-.32-1.25-.54-2.08l-2.2-1,2-.84C464.19,122.46,464.22,122.05,464.28,121.26Z"/><path class="cls-2" d="M413,155.38l1.65,1.25,2-.74-.77,2.08,1.21,1.72H415l-1.3,1.78c-.21-.81-.32-1.22-.54-2l-2-.57,1.76-1.31C413,156.69,413,156.26,413,155.38Z"/><path class="cls-2" d="M423.65,149.75l1.72,1.35,2.11-.67-.78,2.1,1.27,1.82-2.21-.09-1.34,1.79c-.23-.85-.34-1.28-.58-2.13l-2.06-.67L423.6,152Z"/><path class="cls-2" d="M434.66,144.5l1.77,1.45,2.17-.59-.8,2.08,1.29,1.89c-.91-.08-1.36-.11-2.26-.17l-1.37,1.75-.6-2.17-2.12-.78,1.88-1.2C434.63,145.85,434.64,145.4,434.66,144.5Z"/><path class="cls-2" d="M446,139.73c.71.61,1.07.91,1.79,1.51l2.21-.5-.83,2,1.3,1.91-2.3-.24-1.4,1.7c-.24-.88-.36-1.32-.59-2.2L444,143.1l1.93-1.13C445.93,141.08,445.94,140.63,446,139.73Z"/><path class="cls-2" d="M457.5,135.52l1.8,1.54,2.24-.4-.87,2,1.29,1.91-2.31-.32c-.58.64-.86,1-1.44,1.62-.23-.87-.34-1.3-.58-2.17l-2.18-.92,2-1C457.45,136.83,457.47,136.39,457.5,135.52Z"/><path class="cls-2" d="M469.2,132l1.78,1.54,2.26-.29c-.36.71-.54,1.08-.9,1.81l1.27,1.86-2.32-.38c-.59.59-.88.89-1.46,1.5-.23-.84-.34-1.26-.56-2.1l-2.18-1,2-.91C469.13,133.19,469.15,132.77,469.2,132Z"/><path class="cls-2" d="M418.28,166.78l1.68,1.29,2.11-.65c-.32.8-.49,1.2-.81,2l1.23,1.71-2.2-.07-1.37,1.67c-.21-.79-.32-1.19-.53-2l-2-.64,1.84-1.2C418.23,168.05,418.25,167.63,418.28,166.78Z"/><path class="cls-2" d="M429.24,161.68l1.74,1.38,2.14-.61-.8,2,1.28,1.79-2.25-.13c-.54.68-.82,1-1.37,1.69l-.57-2.08-2.1-.72,1.87-1.18C429.2,163,429.21,162.55,429.24,161.68Z"/><path class="cls-2" d="M440.39,156.79l1.78,1.45,2.18-.55c-.33.81-.49,1.22-.81,2l1.29,1.85-2.27-.19-1.38,1.7c-.24-.85-.36-1.28-.59-2.13l-2.14-.79,1.89-1.16Z"/><path class="cls-2" d="M451.72,152.18l1.78,1.48,2.2-.5c-.33.8-.5,1.2-.83,2l1.3,1.87-2.29-.23-1.39,1.68-.6-2.15-2.15-.84,1.91-1.11C451.68,153.5,451.69,153.06,451.72,152.18Z"/><path class="cls-2" d="M463.17,147.87l1.77,1.49,2.22-.45-.85,2,1.27,1.86-2.29-.26-1.41,1.63c-.23-.85-.35-1.27-.58-2.13l-2.16-.86,1.94-1.06C463.12,149.17,463.13,148.74,463.17,147.87Z"/><path class="cls-2" d="M474.71,143.93l1.76,1.46,2.22-.4c-.36.74-.53,1.11-.88,1.86l1.25,1.79-2.29-.27-1.44,1.56c-.21-.82-.32-1.23-.54-2.06l-2.15-.87,2-1C474.64,145.17,474.66,144.76,474.71,143.93Z"/><path class="cls-2" d="M423.26,177.23l1.72,1.28,2.16-.56c-.33.76-.5,1.13-.83,1.88a16.18,16.18,0,0,0,1.27,1.49h-2.27l-1.4,1.48c-.22-.69-.34-1-.56-1.78l-2.1-.67,1.91-1.09Z"/><path class="cls-2" d="M434.47,172.6l1.76,1.35,2.18-.55-.82,1.93a11.44,11.44,0,0,0,1.3,1.48l-2.28,0-1.37,1.43c-.25-.65-.37-.95-.61-1.75l-2.13-.73,1.91-1.1C434.43,173.85,434.45,173.44,434.47,172.6Z"/><path class="cls-2" d="M445.74,168l1.77,1.4,2.18-.54c-.32.79-.48,1.18-.81,2a11.73,11.73,0,0,0,1.29,1.49l-2.27,0-1.38,1.42c-.24-.64-.36-.94-.6-1.77l-2.14-.76,1.9-1.1C445.7,169.3,445.72,168.87,445.74,168Z"/><path class="cls-2" d="M457.05,163.51l1.77,1.41,2.18-.52-.82,2a13.93,13.93,0,0,0,1.25,1.52h-2.24l-1.4,1.43c-.22-.65-.33-1-.57-1.79l-2.15-.79,1.92-1.09C457,164.8,457,164.37,457.05,163.51Z"/><path class="cls-2" d="M468.39,159.09l1.76,1.39,2.18-.52c-.34.77-.51,1.16-.84,1.93.5.7.74,1,1.21,1.55h-2.22l-1.43,1.45c-.2-.66-.3-1-.53-1.82l-2.13-.78,1.92-1.08C468.34,160.36,468.36,159.93,468.39,159.09Z"/><path class="cls-2" d="M479.77,154.77l1.72,1.33,2.18-.52-.87,1.86c.49.67.72,1,1.18,1.57l-2.21,0-1.44,1.48c-.19-.69-.28-1-.5-1.84l-2.1-.74c.76-.43,1.15-.64,1.92-1.06C479.7,156,479.72,155.58,479.77,154.77Z"/><path class="cls-2" d="M410.1,136.71l1.65,1.2c.8-.35,1.2-.52,2-.85l-.72,2.16c.5.68.74,1,1.23,1.72l-2.1.09-1.25,1.91-.57-2.08c-.79-.21-1.18-.3-2-.49.67-.58,1-.87,1.7-1.44C410.1,138,410.1,137.6,410.1,136.71Z"/><path class="cls-2" d="M420.61,130.61l1.73,1.31,2.11-.73-.76,2.13,1.27,1.81c-.88,0-1.32,0-2.2,0L421.45,137l-.6-2.14c-.83-.26-1.24-.38-2.06-.62.71-.54,1.08-.81,1.8-1.34C420.6,132,420.61,131.5,420.61,130.61Z"/><path class="cls-2" d="M431.66,125.2l1.78,1.41,2.19-.59-.82,2.06,1.3,1.86-2.28-.15c-.55.7-.83,1.05-1.37,1.76l-.6-2.17-2.14-.74c.75-.49,1.13-.74,1.89-1.22Z"/><path class="cls-2" d="M443.14,120.62l1.79,1.48,2.25-.43c-.35.77-.52,1.16-.87,1.94l1.3,1.89-2.33-.29-1.43,1.64-.58-2.15-2.18-.86,2-1.07C443.08,121.91,443.1,121.48,443.14,120.62Z"/><path class="cls-2" d="M454.93,117l1.8,1.53,2.29-.26c-.37.7-.55,1.06-.92,1.78l1.28,1.87-2.35-.42L455.54,123l-.55-2.09-2.2-1,2-.89C454.85,118.21,454.88,117.8,454.93,117Z"/><path class="cls-2" d="M415.17,147.42l1.67,1.27,2.05-.76-.75,2.12,1.23,1.77h-2.15l-1.29,1.83c-.23-.83-.34-1.25-.56-2.09l-2-.58c.7-.54,1.05-.81,1.76-1.34C415.15,148.75,415.16,148.31,415.17,147.42Z"/><path class="cls-2" d="M425.88,141.73l1.74,1.38,2.13-.66c-.31.84-.47,1.26-.78,2.11l1.28,1.85c-.89,0-1.34-.07-2.23-.1l-1.33,1.8c-.24-.86-.36-1.29-.59-2.15l-2.09-.7,1.84-1.28C425.86,143.08,425.87,142.63,425.88,141.73Z"/><path class="cls-2" d="M437,136.56l1.78,1.47,2.19-.56c-.33.82-.49,1.24-.82,2.07l1.3,1.9-2.28-.2L437.79,143l-.6-2.19-2.14-.79,1.9-1.2Z"/><path class="cls-2" d="M448.43,132l1.79,1.52,2.24-.44-.85,2,1.3,1.92-2.32-.29-1.42,1.66c-.23-.87-.35-1.31-.59-2.19l-2.17-.88c.77-.44,1.16-.65,1.94-1.08C448.38,133.33,448.4,132.89,448.43,132Z"/><path class="cls-2" d="M460.1,128.17l1.79,1.55,2.27-.32c-.36.74-.54,1.11-.89,1.86l1.28,1.91-2.33-.38c-.59.61-.88.92-1.46,1.55-.23-.86-.34-1.29-.56-2.15l-2.19-.95c.79-.39,1.19-.58,2-1C460,129.44,460.06,129,460.1,128.17Z"/><path class="cls-2" d="M420.49,158.85l1.7,1.31,2.1-.66c-.31.82-.47,1.23-.79,2.05l1.25,1.76-2.2-.07c-.54.7-.81,1-1.34,1.74-.23-.83-.34-1.24-.56-2.06l-2-.65,1.82-1.25C420.46,160.15,420.47,159.72,420.49,158.85Z"/><path class="cls-2" d="M431.43,153.61l1.75,1.41,2.16-.6-.8,2.06,1.29,1.85-2.25-.15-1.36,1.74c-.24-.85-.36-1.28-.59-2.14l-2.11-.74,1.87-1.2C431.41,155,431.42,154.5,431.43,153.61Z"/><path class="cls-2" d="M442.63,148.71l1.78,1.48,2.19-.54c-.32.82-.49,1.23-.81,2l1.3,1.89-2.29-.21-1.38,1.71-.6-2.17-2.14-.81,1.9-1.16Z"/><path class="cls-2" d="M454,144.21l1.79,1.51,2.22-.46c-.34.79-.51,1.19-.84,2l1.29,1.91-2.3-.27-1.41,1.67-.58-2.18-2.17-.87,1.93-1.09C454,145.53,454,145.09,454,144.21Z"/><path class="cls-2" d="M465.59,140.16l1.78,1.52,2.23-.39-.87,1.91,1.28,1.87-2.31-.31-1.43,1.59-.57-2.13-2.17-.91,2-1Z"/><path class="cls-2" d="M425.43,169.32l1.72,1.33,2.15-.59c-.32.79-.49,1.18-.81,2l1.25,1.74-2.24-.13-1.38,1.64c-.22-.8-.33-1.2-.56-2l-2.09-.69,1.88-1.15C425.38,170.59,425.4,170.17,425.43,169.32Z"/><path class="cls-2" d="M436.57,164.5l1.76,1.4,2.17-.56c-.32.8-.48,1.2-.81,2l1.29,1.8-2.26-.17-1.38,1.66c-.24-.82-.36-1.24-.59-2.07l-2.13-.75,1.89-1.14C436.54,165.8,436.55,165.37,436.57,164.5Z"/><path class="cls-2" d="M447.83,159.83l1.78,1.45,2.19-.53-.82,2,1.3,1.83-2.28-.2-1.39,1.67c-.23-.84-.35-1.27-.59-2.11l-2.15-.8c.76-.45,1.14-.68,1.91-1.12Z"/><path class="cls-2" d="M459.19,155.36l1.78,1.46,2.2-.5c-.34.79-.5,1.19-.84,2,.52.73.77,1.1,1.28,1.83l-2.27-.22-1.4,1.65c-.24-.84-.35-1.26-.59-2.11l-2.15-.83,1.92-1.09C459.15,156.66,459.17,156.23,459.19,155.36Z"/><path class="cls-2" d="M470.63,151.11l1.76,1.44,2.2-.47-.85,1.92,1.25,1.78-2.27-.21-1.42,1.61c-.22-.83-.33-1.24-.56-2.07l-2.14-.83,1.94-1.05C470.58,152.38,470.6,152,470.63,151.11Z"/><path class="cls-5" d="M477,314.63c-.67-.47-84.73-177.6-84.73-177.6"/><path class="cls-6" d="M573.23,379.11v16.61H504c-7.52-10.08-14-18.91-16.35-22.29-6.66-9.72-42.74-25.64-51.81-33.68-4.65-4.13-5.42-9.72-5.07-14.16a1.35,1.35,0,0,1,0-.28,26.61,26.61,0,0,1,1.62-7.09h0a.14.14,0,0,1,0,0c-6.66-8.47-.11-25.5-.11-25.5-.71-1-1.31-1.85-1.83-2.71-5.86-9.73-.31-14.62,1.73-16l0,0a4.8,4.8,0,0,1,.66-.4,1.41,1.41,0,0,0-.1-.18,21.61,21.61,0,0,1-2.84-6.69,2.33,2.33,0,0,1-.07-.25,20.36,20.36,0,0,1,.19-10.17,8.06,8.06,0,0,1,2-3.59c3.69-3.7,10.38-2.4,12.87-1.76.6.17,1,.3,1,.3l-.06-.13a25.23,25.23,0,0,1-1.88-5.23,17.2,17.2,0,0,1-.38-2.3,13.3,13.3,0,0,1,5.08-12.48c.52-.39,1.73,0,3.44,1.06,3.34,2,8.58,6.18,14.63,11.42.95.82,1.92,1.68,2.9,2.55,14.51,12.8,32.19,30,38.59,36.28,11.06,10.79,12.55,37.66,20.54,53.38C535,348,561.77,370,573.23,379.11Z"/><path class="cls-8" d="M573.23,379.11v16.61H504c-7.52-10.08-14-18.91-16.35-22.29-6.66-9.72-42.74-25.64-51.81-33.68-4.65-4.13-5.42-9.72-5.07-14.16a1.35,1.35,0,0,1,0-.28,26.61,26.61,0,0,1,1.62-7.09h0a.14.14,0,0,1,0,0c-6.66-8.47-.11-25.5-.11-25.5-.71-1-1.31-1.85-1.83-2.71-5.86-9.73-.31-14.62,1.73-16l0,0a4.8,4.8,0,0,1,.66-.4,1.41,1.41,0,0,0-.1-.18,21.61,21.61,0,0,1-2.84-6.69,2.33,2.33,0,0,1-.07-.25,20.36,20.36,0,0,1,.19-10.17,8.06,8.06,0,0,1,2-3.59c3.69-3.7,10.38-2.4,12.87-1.76.6.17,1,.3,1,.3l-.06-.13a25.23,25.23,0,0,1-1.88-5.23,17.2,17.2,0,0,1-.38-2.3,13.3,13.3,0,0,1,5.08-12.48c.52-.39,1.73,0,3.44,1.06,3.34,2,8.58,6.18,14.63,11.42.95.82,1.92,1.68,2.9,2.55,14.51,12.8,32.19,30,38.59,36.28,11.06,10.79,12.55,37.66,20.54,53.38C535,348,561.77,370,573.23,379.11Z"/><path class="cls-6" d="M480.43,324.84a21.45,21.45,0,0,0-4.77-4.27,9.59,9.59,0,0,0-4.69-1.8,4.39,4.39,0,0,0-4.24,2.09,3.45,3.45,0,0,0,.18,3,8.32,8.32,0,0,0,2,2.42,23.21,23.21,0,0,0,7.08,4.27,5,5,0,0,0,2.92-1.66A7.53,7.53,0,0,0,480.43,324.84Z"/><path class="cls-6" d="M482.32,309.62a28.83,28.83,0,0,0-6.67-5.36,13,13,0,0,0-6.36-2.1c-2.29,0-4.71,1.11-5.47,3a4.61,4.61,0,0,0,.47,3.93,11.55,11.55,0,0,0,2.88,3.09,31.32,31.32,0,0,0,9.74,5.22,6.46,6.46,0,0,0,3.74-2.4A9.81,9.81,0,0,0,482.32,309.62Z"/><path class="cls-6" d="M481,293.46a32.05,32.05,0,0,0-7.31-5.88,14.28,14.28,0,0,0-7-2.29c-2.51,0-5.17,1.21-6,3.34a5.07,5.07,0,0,0,.52,4.31,12.65,12.65,0,0,0,3.16,3.38A34.25,34.25,0,0,0,475.11,302a7,7,0,0,0,4.09-2.63A10.7,10.7,0,0,0,481,293.46Z"/><path class="cls-6" d="M476,269.74a32,32,0,0,0-7.31-5.87,14.26,14.26,0,0,0-7-2.3c-2.51,0-5.16,1.21-6,3.35a5,5,0,0,0,.51,4.3,12.57,12.57,0,0,0,3.17,3.39,34.62,34.62,0,0,0,10.67,5.72,7.14,7.14,0,0,0,4.1-2.64A10.83,10.83,0,0,0,476,269.74Z"/><path class="cls-9" d="M432.92,273.53s-9.27-15.95.22-21.57,33.92,5.42,40.55,13.42,3.9,13.65-4.72,15.36"/><path class="cls-9" d="M433,292.54s-9.19-7.07-3.43-16.22,34.25.67,40.48,5.32,17.91,15.17,8.3,23.3"/><path class="cls-9" d="M432.47,318.22a20.8,20.8,0,0,1-2.73-13.08c.86-7.8,1.75-13.11,7.68-15.27s39.35,10.36,44.18,18.85S477.75,321,477.75,321"/><path class="cls-9" d="M433.08,337.29s-6.73-11.57,2.45-22.44,34.26-.88,36.65,1.34,12.73,8.93,7.74,14.51c0,0-3.93,4.92-12.22,1.12s-17.51-1.68-17.51-1.68"/><path class="cls-9" d="M458.34,329.35a16.32,16.32,0,0,0-4.34,5.09"/><path class="cls-9" d="M479.69,303.73c4.3,9,12.43,15.93,20.35,22.61"/><path class="cls-6" d="M469.69,246.09a2.76,2.76,0,0,1-.78.89c-1.4,1-3.47.59-5.11,0a23.91,23.91,0,0,1-9.47-6.5,10.73,10.73,0,0,1-2.66-4.85,5.44,5.44,0,0,1,.49-3.46C456,234.39,462.45,239.68,469.69,246.09Z"/><path class="cls-2" d="M444.91,76.76l4.63,2.47a.41.41,0,0,1,0,.75l-4.82,2.18a16,16,0,0,0-6.82,5.74l-2.75,4.17a.5.5,0,0,1-.83,0l-2.42-4.33a15.68,15.68,0,0,0-6.37-6.15l-4.63-2.48a.41.41,0,0,1,0-.75l4.81-2.18a16,16,0,0,0,6.83-5.73l2.75-4.18a.5.5,0,0,1,.83,0l2.42,4.34A15.71,15.71,0,0,0,444.91,76.76Z"/><path class="cls-2" d="M556.29,287.66l4.63,2.48a.41.41,0,0,1,0,.75l-4.82,2.18a16,16,0,0,0-6.82,5.73L546.51,303a.5.5,0,0,1-.83,0l-2.42-4.33a15.68,15.68,0,0,0-6.37-6.15L532.26,290a.41.41,0,0,1,0-.75l4.81-2.18a16,16,0,0,0,6.83-5.73l2.75-4.18a.5.5,0,0,1,.83,0l2.42,4.33A15.65,15.65,0,0,0,556.29,287.66Z"/><path class="cls-2" d="M323.53,262l4.63,2.47a.41.41,0,0,1,0,.75l-4.81,2.18a16.1,16.1,0,0,0-6.83,5.74l-2.74,4.17a.5.5,0,0,1-.84,0l-2.42-4.33a15.65,15.65,0,0,0-6.36-6.15l-4.63-2.48a.41.41,0,0,1,0-.75l4.81-2.18a16,16,0,0,0,6.82-5.73l2.75-4.17a.5.5,0,0,1,.84,0l2.41,4.34A15.8,15.8,0,0,0,323.53,262Z"/><path class="cls-2" d="M430.35,353.42l4.63,2.47a.41.41,0,0,1,0,.75l-4.81,2.18a16.1,16.1,0,0,0-6.83,5.74l-2.74,4.17a.5.5,0,0,1-.84,0l-2.42-4.33a15.65,15.65,0,0,0-6.36-6.15l-4.63-2.48a.41.41,0,0,1,0-.75l4.81-2.18a16,16,0,0,0,6.82-5.73l2.75-4.17a.5.5,0,0,1,.84,0l2.41,4.34A15.8,15.8,0,0,0,430.35,353.42Z"/><polygon class="cls-10" points="534.76 220.65 561.84 204.87 540.95 229.73 558.81 249.71 537.51 238.09 529.11 262.84 524.87 239.07 500.03 252.63 518.91 231.1 498.87 221.38 523.24 220.88 524.79 199.81 534.76 220.65"/><polygon class="cls-10" points="263.08 300.2 280.94 320.19 259.64 308.57 251.24 333.32 247 309.55 240.71 312.99 240.71 301.95 241.04 301.57 240.71 301.42 240.71 291.45 245.36 291.36 246.92 270.28 256.89 291.12 283.96 275.34 263.08 300.2"/><polygon class="cls-10" points="346.43 111.16 373.51 95.37 352.62 120.23 370.48 140.21 349.18 128.59 340.78 153.34 336.54 129.57 311.7 143.14 330.57 121.6 310.54 111.89 334.91 111.38 336.46 90.31 346.43 111.16"/></g></g></svg>